<svg xmlns="http://www.w3.org/2000/svg" width="520" height="320" viewBox="0 0 520 320" role="img" aria-labelledby="title desc">
  <title id="title">Preventivi vuoti</title>
  <desc id="desc">Illustrazione di un preventivo con righe e importo.</desc>
  <defs>
    <linearGradient id="sheet" x1="151" y1="48" x2="356" y2="254" gradientUnits="userSpaceOnUse">
      <stop offset="0" stop-color="#ffffff"/>
      <stop offset="1" stop-color="#eff6ff"/>
    </linearGradient>
    <filter id="shadow" x="-20%" y="-20%" width="140%" height="140%">
      <feDropShadow dx="0" dy="12" stdDeviation="14" flood-color="#94a3b8" flood-opacity=".22"/>
    </filter>
  </defs>
  <rect width="520" height="320" fill="none"/>
  <ellipse cx="260" cy="276" rx="150" ry="18" fill="#e2e8f0" opacity=".75"/>
  <g filter="url(#shadow)">
    <rect x="150" y="50" width="220" height="212" rx="18" fill="url(#sheet)" stroke="#bfdbfe" stroke-width="2"/>
    <rect x="180" y="82" width="80" height="12" rx="6" fill="#2563eb"/>
    <rect x="180" y="112" width="150" height="9" rx="4.5" fill="#94a3b8"/>
    <rect x="180" y="136" width="128" height="9" rx="4.5" fill="#cbd5e1"/>
    <rect x="180" y="170" width="150" height="1.8" rx=".9" fill="#dbeafe"/>
    <rect x="180" y="192" width="150" height="1.8" rx=".9" fill="#dbeafe"/>
    <rect x="180" y="214" width="150" height="1.8" rx=".9" fill="#dbeafe"/>
    <rect x="180" y="232" width="54" height="10" rx="5" fill="#93c5fd"/>
    <rect x="268" y="229" width="62" height="16" rx="8" fill="#dcfce7"/>
    <path d="M282 237h34" stroke="#16a34a" stroke-width="4" stroke-linecap="round"/>
  </g>
  <g transform="translate(328 72)" filter="url(#shadow)">
    <rect width="96" height="70" rx="16" fill="#ffffff" stroke="#dbeafe" stroke-width="2"/>
    <circle cx="27" cy="35" r="13" fill="#dbeafe"/>
    <path d="M48 28h28M48 42h19" stroke="#94a3b8" stroke-width="7" stroke-linecap="round"/>
  </g>
  <g transform="translate(82 178)" filter="url(#shadow)">
    <rect width="112" height="66" rx="16" fill="#ffffff" stroke="#dcfce7" stroke-width="2"/>
    <path d="M24 35h64" stroke="#22c55e" stroke-width="9" stroke-linecap="round"/>
    <path d="M56 20v30" stroke="#22c55e" stroke-width="7" stroke-linecap="round"/>
  </g>
  <g transform="translate(372 196)">
    <circle cx="30" cy="30" r="30" fill="#dbeafe"/>
    <path d="M20 31h20M31 20v20" stroke="#2563eb" stroke-width="6" stroke-linecap="round"/>
  </g>
</svg>
