<svg xmlns="http://www.w3.org/2000/svg" width="420" height="260" viewBox="0 0 420 260" role="img" aria-labelledby="title desc">
  <title id="title">Clienti</title>
  <desc id="desc">Illustrazione di schede cliente e persone</desc>
  <defs>
    <linearGradient id="card" x1="82" y1="45" x2="340" y2="214" gradientUnits="userSpaceOnUse">
      <stop offset="0" stop-color="#ffffff"/>
      <stop offset="1" stop-color="#eef5ff"/>
    </linearGradient>
    <filter id="shadow" x="50" y="26" width="320" height="210" filterUnits="userSpaceOnUse">
      <feDropShadow dx="0" dy="10" stdDeviation="12" flood-color="#1f2937" flood-opacity=".12"/>
    </filter>
  </defs>
  <rect width="420" height="260" fill="#ffffff"/>
  <ellipse cx="210" cy="224" rx="134" ry="12" fill="#e8edf5"/>
  <g filter="url(#shadow)">
    <rect x="76" y="48" width="268" height="162" rx="18" fill="url(#card)" stroke="#d9e3f2"/>
    <rect x="99" y="72" width="100" height="12" rx="6" fill="#2563eb" opacity=".92"/>
    <rect x="99" y="96" width="152" height="9" rx="4.5" fill="#a7b8d3"/>
    <rect x="99" y="114" width="116" height="9" rx="4.5" fill="#c8d5e6"/>
    <rect x="99" y="144" width="76" height="28" rx="8" fill="#e8f1ff" stroke="#bdd4ff"/>
    <rect x="188" y="144" width="76" height="28" rx="8" fill="#f2f7fd" stroke="#d7e3f2"/>
    <rect x="277" y="144" width="44" height="28" rx="8" fill="#f2f7fd" stroke="#d7e3f2"/>
  </g>
  <g transform="translate(240 72)">
    <circle cx="42" cy="36" r="28" fill="#dbeafe"/>
    <circle cx="42" cy="31" r="13" fill="#2563eb"/>
    <path d="M17 70c5-18 45-18 50 0v10H17V70z" fill="#2563eb"/>
    <circle cx="12" cy="54" r="17" fill="#e0f2fe"/>
    <circle cx="12" cy="51" r="8" fill="#38bdf8"/>
    <path d="M-3 82c3-13 27-13 30 0v6H-3v-6z" fill="#38bdf8"/>
    <circle cx="74" cy="57" r="17" fill="#dcfce7"/>
    <circle cx="74" cy="54" r="8" fill="#16a34a"/>
    <path d="M59 85c3-13 27-13 30 0v6H59v-6z" fill="#16a34a"/>
  </g>
  <g transform="translate(80 34)">
    <rect x="0" y="0" width="76" height="52" rx="10" fill="#ffffff" stroke="#d7e3f2"/>
    <circle cx="18" cy="20" r="8" fill="#93c5fd"/>
    <rect x="32" y="15" width="31" height="7" rx="3.5" fill="#94a3b8"/>
    <rect x="14" y="34" width="48" height="6" rx="3" fill="#dbe4f0"/>
  </g>
  <g transform="translate(264 30)">
    <rect x="0" y="0" width="92" height="54" rx="10" fill="#ffffff" stroke="#d7e3f2"/>
    <circle cx="20" cy="22" r="9" fill="#86efac"/>
    <rect x="38" y="15" width="38" height="7" rx="3.5" fill="#94a3b8"/>
    <rect x="38" y="30" width="26" height="6" rx="3" fill="#cbd5e1"/>
  </g>
</svg>
