<svg xmlns="http://www.w3.org/2000/svg" width="520" height="320" viewBox="0 0 520 320" role="img" aria-labelledby="title desc">
  <title id="title">Magazzino prodotti vuoto</title>
  <desc id="desc">Illustrazione di scaffale e confezioni prodotto.</desc>
  <defs>
    <linearGradient id="boxBlue" x1="144" y1="82" x2="248" y2="202" gradientUnits="userSpaceOnUse">
      <stop offset="0" stop-color="#eff6ff"/>
      <stop offset="1" stop-color="#dbeafe"/>
    </linearGradient>
    <linearGradient id="boxGreen" x1="277" y1="91" x2="369" y2="205" gradientUnits="userSpaceOnUse">
      <stop offset="0" stop-color="#ecfdf5"/>
      <stop offset="1" stop-color="#bbf7d0"/>
    </linearGradient>
    <filter id="shadow" x="-20%" y="-20%" width="140%" height="140%">
      <feDropShadow dx="0" dy="12" stdDeviation="14" flood-color="#94a3b8" flood-opacity=".22"/>
    </filter>
  </defs>
  <rect width="520" height="320" fill="none"/>
  <ellipse cx="260" cy="274" rx="150" ry="18" fill="#e2e8f0" opacity=".75"/>
  <g filter="url(#shadow)">
    <rect x="110" y="214" width="300" height="22" rx="11" fill="#334155"/>
    <rect x="134" y="92" width="108" height="122" rx="16" fill="url(#boxBlue)" stroke="#bfdbfe" stroke-width="2"/>
    <path d="M134 126h108" stroke="#bfdbfe" stroke-width="2"/>
    <circle cx="188" cy="153" r="24" fill="#2563eb" opacity=".92"/>
    <path d="M176 153h24M188 141v24" stroke="#fff" stroke-width="6" stroke-linecap="round"/>
    <rect x="154" y="186" width="68" height="9" rx="4.5" fill="#93c5fd"/>
    <rect x="274" y="102" width="104" height="112" rx="16" fill="url(#boxGreen)" stroke="#86efac" stroke-width="2"/>
    <path d="M274 136h104" stroke="#86efac" stroke-width="2"/>
    <rect x="296" y="157" width="60" height="14" rx="7" fill="#16a34a" opacity=".9"/>
    <rect x="296" y="183" width="44" height="9" rx="4.5" fill="#86efac"/>
    <rect x="218" y="148" width="86" height="66" rx="14" fill="#ffffff" stroke="#dbeafe" stroke-width="2"/>
    <rect x="237" y="168" width="48" height="10" rx="5" fill="#f59e0b"/>
    <rect x="237" y="191" width="36" height="8" rx="4" fill="#fde68a"/>
  </g>
  <g transform="translate(358 70)">
    <circle cx="31" cy="31" r="31" fill="#dbeafe"/>
    <path d="M20 32h22M31 21v22" stroke="#2563eb" stroke-width="6" stroke-linecap="round"/>
  </g>
  <g transform="translate(98 70)">
    <rect x="0" y="0" width="70" height="48" rx="12" fill="#ffffff" stroke="#dbeafe" stroke-width="2"/>
    <circle cx="18" cy="19" r="7" fill="#60a5fa"/>
    <rect x="32" y="14" width="24" height="7" rx="3.5" fill="#94a3b8"/>
    <rect x="14" y="32" width="42" height="6" rx="3" fill="#dbeafe"/>
  </g>
</svg>
