<svg xmlns="http://www.w3.org/2000/svg" width="520" height="320" viewBox="0 0 520 320" role="img" aria-labelledby="title desc">
  <title id="title">Scadenziario vuoto</title>
  <desc id="desc">Illustrazione di uno scadenziario con una ricevuta e un calendario.</desc>
  <defs>
    <filter id="shadow" x="-20%" y="-20%" width="140%" height="140%">
      <feDropShadow dx="0" dy="12" stdDeviation="14" flood-color="#94a3b8" flood-opacity=".22"/>
    </filter>
  </defs>
  <rect width="520" height="320" fill="none"/>
  <ellipse cx="260" cy="276" rx="154" ry="18" fill="#e2e8f0" opacity=".75"/>
  <g filter="url(#shadow)">
    <rect x="132" y="58" width="256" height="190" rx="18" fill="#ffffff" stroke="#dbeafe" stroke-width="2"/>
    <rect x="154" y="86" width="212" height="18" rx="9" fill="#eff6ff"/>
    <rect x="154" y="126" width="94" height="12" rx="6" fill="#cbd5e1"/>
    <rect x="154" y="154" width="156" height="12" rx="6" fill="#e2e8f0"/>
    <rect x="154" y="182" width="132" height="12" rx="6" fill="#e2e8f0"/>
    <rect x="154" y="210" width="92" height="12" rx="6" fill="#dbeafe"/>
    <circle cx="342" cy="132" r="21" fill="#fef3c7" stroke="#f59e0b" stroke-width="3"/>
    <path d="M333 132h18M342 123v18" stroke="#d97706" stroke-width="4" stroke-linecap="round"/>
  </g>
  <g transform="translate(319 79)">
    <rect width="92" height="76" rx="14" fill="#f8fafc" stroke="#bfdbfe" stroke-width="2"/>
    <rect x="14" y="18" width="64" height="9" rx="4.5" fill="#93c5fd"/>
    <rect x="14" y="40" width="44" height="9" rx="4.5" fill="#cbd5e1"/>
    <circle cx="71" cy="52" r="14" fill="#2563eb"/>
    <path d="M65 52l4 4 8-10" fill="none" stroke="#fff" stroke-width="4" stroke-linecap="round" stroke-linejoin="round"/>
  </g>
  <g transform="translate(102 150)">
    <rect x="0" y="0" width="82" height="72" rx="14" fill="#dcfce7" stroke="#bbf7d0" stroke-width="2"/>
    <rect x="14" y="16" width="54" height="10" rx="5" fill="#22c55e"/>
    <rect x="14" y="38" width="36" height="8" rx="4" fill="#86efac"/>
    <rect x="14" y="54" width="48" height="8" rx="4" fill="#bbf7d0"/>
  </g>
</svg>
