<svg xmlns="http://www.w3.org/2000/svg" width="520" height="320" viewBox="0 0 520 320" role="img" aria-labelledby="title desc">
  <title id="title">GiftCard vuote</title>
  <desc id="desc">Illustrazione di una carta regalo digitale con saldo e voucher.</desc>
  <defs>
    <linearGradient id="card" x1="130" y1="94" x2="388" y2="254" gradientUnits="userSpaceOnUse">
      <stop offset="0" stop-color="#ffffff"/>
      <stop offset="1" stop-color="#eff6ff"/>
    </linearGradient>
    <filter id="shadow" x="-20%" y="-20%" width="140%" height="140%">
      <feDropShadow dx="0" dy="12" stdDeviation="14" flood-color="#94a3b8" flood-opacity=".24"/>
    </filter>
  </defs>
  <rect width="520" height="320" fill="none"/>
  <ellipse cx="260" cy="276" rx="150" ry="18" fill="#e2e8f0" opacity=".75"/>
  <g filter="url(#shadow)">
    <rect x="120" y="98" width="280" height="166" rx="22" fill="url(#card)" stroke="#bfdbfe" stroke-width="2"/>
    <rect x="120" y="130" width="280" height="38" fill="#2563eb"/>
    <rect x="152" y="196" width="82" height="14" rx="7" fill="#93c5fd"/>
    <rect x="152" y="224" width="122" height="10" rx="5" fill="#cbd5e1"/>
    <rect x="302" y="194" width="54" height="38" rx="10" fill="#dcfce7"/>
    <path d="M314 213l9 9 19-24" fill="none" stroke="#16a34a" stroke-width="5" stroke-linecap="round" stroke-linejoin="round"/>
  </g>
  <g transform="translate(340 66)" filter="url(#shadow)">
    <rect width="108" height="72" rx="14" fill="#ffffff" stroke="#dbeafe" stroke-width="2"/>
    <rect x="16" y="16" width="62" height="8" rx="4" fill="#93c5fd"/>
    <rect x="16" y="34" width="46" height="7" rx="3.5" fill="#cbd5e1"/>
    <text x="70" y="55" fill="#2563eb" font-family="Arial, sans-serif" font-size="17" font-weight="700">EUR</text>
  </g>
  <g transform="translate(78 72)">
    <circle cx="36" cy="36" r="36" fill="#eff6ff" stroke="#bfdbfe" stroke-width="2"/>
    <path d="M25 39h22M36 28v22" stroke="#2563eb" stroke-width="6" stroke-linecap="round"/>
  </g>
  <g transform="translate(250 70)">
    <circle cx="34" cy="34" r="34" fill="#dcfce7"/>
    <path d="M22 35l8 8 17-22" fill="none" stroke="#16a34a" stroke-width="6" stroke-linecap="round" stroke-linejoin="round"/>
  </g>
</svg>
