<svg xmlns="http://www.w3.org/2000/svg" width="520" height="320" viewBox="0 0 520 320" role="img" aria-labelledby="title desc">
  <title id="title">Pacchetti vuoti</title>
  <desc id="desc">Illustrazione di un pacchetto con schede di servizi e prodotti.</desc>
  <defs>
    <linearGradient id="box" x1="146" y1="74" x2="372" y2="242" gradientUnits="userSpaceOnUse">
      <stop offset="0" stop-color="#ffffff"/>
      <stop offset="1" stop-color="#eef6ff"/>
    </linearGradient>
    <filter id="shadow" x="-20%" y="-20%" width="140%" height="140%">
      <feDropShadow dx="0" dy="12" stdDeviation="14" flood-color="#94a3b8" flood-opacity=".22"/>
    </filter>
  </defs>
  <rect width="520" height="320" fill="none"/>
  <ellipse cx="260" cy="274" rx="150" ry="18" fill="#e2e8f0" opacity=".75"/>
  <g filter="url(#shadow)">
    <path d="M152 122l108-50 108 50-108 50-108-50z" fill="#dbeafe" stroke="#bfdbfe" stroke-width="2"/>
    <path d="M152 122v90l108 52v-92l-108-50z" fill="url(#box)" stroke="#bfdbfe" stroke-width="2"/>
    <path d="M368 122v90l-108 52v-92l108-50z" fill="#eff6ff" stroke="#bfdbfe" stroke-width="2"/>
    <path d="M206 98l108 50" stroke="#93c5fd" stroke-width="4" stroke-linecap="round"/>
    <path d="M260 172v91" stroke="#bfdbfe" stroke-width="2"/>
    <rect x="179" y="158" width="48" height="10" rx="5" fill="#2563eb"/>
    <rect x="179" y="181" width="58" height="8" rx="4" fill="#94a3b8"/>
    <rect x="179" y="199" width="42" height="8" rx="4" fill="#cbd5e1"/>
  </g>
  <g transform="translate(326 72)" filter="url(#shadow)">
    <rect width="96" height="68" rx="14" fill="#ffffff" stroke="#dbeafe" stroke-width="2"/>
    <rect x="18" y="18" width="60" height="9" rx="4.5" fill="#93c5fd"/>
    <rect x="18" y="38" width="42" height="8" rx="4" fill="#cbd5e1"/>
  </g>
  <g transform="translate(90 90)" filter="url(#shadow)">
    <rect width="92" height="64" rx="14" fill="#ffffff" stroke="#dcfce7" stroke-width="2"/>
    <circle cx="28" cy="32" r="12" fill="#22c55e" opacity=".9"/>
    <path d="M46 25h28M46 39h18" stroke="#94a3b8" stroke-width="7" stroke-linecap="round"/>
  </g>
  <g transform="translate(376 190)">
    <circle cx="30" cy="30" r="30" fill="#dbeafe"/>
    <path d="M19 31h22M30 20v22" stroke="#2563eb" stroke-width="6" stroke-linecap="round"/>
  </g>
</svg>
