<svg xmlns="http://www.w3.org/2000/svg" width="520" height="320" viewBox="0 0 520 320" role="img" aria-labelledby="title desc">
  <title id="title">GiftBox vuote</title>
  <desc id="desc">Illustrazione di una confezione regalo digitale con voucher.</desc>
  <defs>
    <linearGradient id="box" x1="150" y1="120" x2="372" y2="252" gradientUnits="userSpaceOnUse">
      <stop offset="0" stop-color="#ffffff"/>
      <stop offset="1" stop-color="#eff6ff"/>
    </linearGradient>
    <filter id="shadow" x="-20%" y="-20%" width="140%" height="140%">
      <feDropShadow dx="0" dy="12" stdDeviation="14" flood-color="#94a3b8" flood-opacity=".24"/>
    </filter>
  </defs>
  <rect width="520" height="320" fill="none"/>
  <ellipse cx="260" cy="278" rx="148" ry="18" fill="#e2e8f0" opacity=".75"/>
  <g filter="url(#shadow)">
    <rect x="150" y="126" width="220" height="126" rx="18" fill="url(#box)" stroke="#bfdbfe" stroke-width="2"/>
    <rect x="150" y="126" width="220" height="34" rx="16" fill="#dbeafe"/>
    <path d="M260 126v126" stroke="#2563eb" stroke-width="10" stroke-linecap="round"/>
    <path d="M150 160h220" stroke="#2563eb" stroke-width="10" stroke-linecap="round"/>
    <path d="M244 126c-30-17-38-45-18-55 21-10 39 19 34 55" fill="#bfdbfe" stroke="#2563eb" stroke-width="8" stroke-linecap="round" stroke-linejoin="round"/>
    <path d="M276 126c30-17 38-45 18-55-21-10-39 19-34 55" fill="#bfdbfe" stroke="#2563eb" stroke-width="8" stroke-linecap="round" stroke-linejoin="round"/>
    <rect x="184" y="188" width="58" height="12" rx="6" fill="#93c5fd"/>
    <rect x="184" y="212" width="102" height="10" rx="5" fill="#cbd5e1"/>
    <rect x="300" y="188" width="36" height="36" rx="10" fill="#dcfce7"/>
    <path d="M309 207l7 7 14-17" fill="none" stroke="#16a34a" stroke-width="5" stroke-linecap="round" stroke-linejoin="round"/>
  </g>
  <g transform="translate(344 66)" filter="url(#shadow)">
    <rect width="100" height="66" rx="14" fill="#ffffff" stroke="#dbeafe" stroke-width="2"/>
    <rect x="16" y="16" width="58" height="8" rx="4" fill="#93c5fd"/>
    <rect x="16" y="34" width="42" height="7" rx="3.5" fill="#cbd5e1"/>
    <circle cx="80" cy="47" r="8" fill="#22c55e"/>
  </g>
  <g transform="translate(84 86)">
    <circle cx="34" cy="34" r="34" fill="#eff6ff" stroke="#bfdbfe" stroke-width="2"/>
    <path d="M24 36h20M34 26v20" stroke="#2563eb" stroke-width="6" stroke-linecap="round"/>
  </g>
</svg>
