<svg xmlns="http://www.w3.org/2000/svg" width="520" height="320" viewBox="0 0 520 320" role="img" aria-labelledby="title desc">
  <title id="title">Piani rateali vuoti</title>
  <desc id="desc">Illustrazione di una scheda di pagamento con calendario e monete.</desc>
  <defs>
    <filter id="shadow" x="-20%" y="-20%" width="140%" height="140%">
      <feDropShadow dx="0" dy="12" stdDeviation="14" flood-color="#94a3b8" flood-opacity=".22"/>
    </filter>
  </defs>
  <rect width="520" height="320" fill="none"/>
  <ellipse cx="260" cy="276" rx="150" ry="18" fill="#e2e8f0" opacity=".75"/>
  <g filter="url(#shadow)">
    <rect x="116" y="70" width="288" height="176" rx="18" fill="#ffffff" stroke="#dbeafe" stroke-width="2"/>
    <rect x="138" y="96" width="244" height="24" rx="12" fill="#eff6ff"/>
    <circle cx="154" cy="108" r="6" fill="#60a5fa"/>
    <rect x="170" y="102" width="76" height="8" rx="4" fill="#93c5fd"/>
    <rect x="138" y="140" width="110" height="18" rx="9" fill="#dbeafe"/>
    <rect x="138" y="168" width="172" height="12" rx="6" fill="#cbd5e1"/>
    <rect x="138" y="190" width="132" height="12" rx="6" fill="#e2e8f0"/>
    <rect x="138" y="212" width="92" height="12" rx="6" fill="#e2e8f0"/>
  </g>
  <g transform="translate(322 132)">
    <rect x="0" y="0" width="94" height="84" rx="14" fill="#f8fafc" stroke="#bfdbfe" stroke-width="2"/>
    <rect x="13" y="18" width="68" height="10" rx="5" fill="#93c5fd"/>
    <rect x="13" y="40" width="68" height="10" rx="5" fill="#cbd5e1"/>
    <rect x="13" y="61" width="42" height="10" rx="5" fill="#dbeafe"/>
    <circle cx="76" cy="63" r="15" fill="#2563eb"/>
    <path d="M69 63l5 5 10-12" fill="none" stroke="#fff" stroke-width="4" stroke-linecap="round" stroke-linejoin="round"/>
  </g>
  <g transform="translate(92 154)">
    <circle cx="22" cy="22" r="22" fill="#bfdbfe"/>
    <circle cx="22" cy="22" r="13" fill="#60a5fa"/>
    <path d="M16 22h12M22 16v12" stroke="#fff" stroke-width="4" stroke-linecap="round"/>
  </g>
  <g transform="translate(376 80)">
    <circle cx="31" cy="31" r="31" fill="#dcfce7"/>
    <path d="M20 32h22M31 21v22" stroke="#22c55e" stroke-width="6" stroke-linecap="round"/>
  </g>
  <g transform="translate(232 210)">
    <circle cx="0" cy="0" r="17" fill="#fef3c7" stroke="#f59e0b" stroke-width="3"/>
    <circle cx="34" cy="8" r="17" fill="#fde68a" stroke="#f59e0b" stroke-width="3"/>
    <path d="M-6 0h12M28 8h12" stroke="#b45309" stroke-width="3" stroke-linecap="round"/>
  </g>
</svg>
